<?xml version="1.0" encoding="utf-8"?>
<!-- Svg Vector Icons : http://www.onlinewebfonts.com/icon -->
<!DOCTYPE svg PUBLIC "-//W3C//DTD SVG 1.1//EN" "http://www.w3.org/Graphics/SVG/1.1/DTD/svg11.dtd">
<svg version="1.1" xmlns="http://www.w3.org/2000/svg" xmlns:xlink="http://www.w3.org/1999/xlink" x="0px" y="0px" viewBox="0 0 256 256" enable-background="new 0 0 256 256" xml:space="preserve">
<metadata> Svg Vector Icons : http://www.onlinewebfonts.com/icon </metadata>
<g><g><path fill="#000000" d="M158.5,233.6c-4.1-3-4.5-7.5-4.5-7.5l-1.5-9.8h-48.9L102,226c0,0-0.4,4.5-4.5,7.5c-4.1,3-7.3,5.6-4.1,6c3.1,0.4,32.4,0,34.6,0c2.2,0,31.5,0.4,34.6,0C165.8,239.2,162.6,236.6,158.5,233.6z"/><path fill="#000000" d="M72.9,155.2c13.1-0.1,14.7-3.3,19-16.4c7.9-20.7,43.2,5.4,21.3,14.5C91.3,162.4,59.9,155.3,72.9,155.2z"/><path fill="#000000" d="M206.8,18.9c-6.3-5.1-16.8-2.6-23.5,5.6l-67,95.2c-6.6,8.2-6.6,6.6-0.2,11.8c6.3,5.1,4.8,5.5,11.4-2.7L206.3,43C213,34.8,213.2,24,206.8,18.9z M189.6,30.3c0,0-1-1.1-4.2-3.8c4.9-8,14.5-6.5,14.5-6.5C190.8,25.4,189.6,30.3,189.6,30.3z"/><path fill="#000000" d="M236.6,51h-29.5l-13,14.2h37.8v113.3H24.2V65.2H145l10-14.2H19.4c-5.2,0-9.4,4.2-9.4,9.4v136.9c0,5.2,4.2,9.4,9.4,9.4h217.1c5.2,0,9.4-4.2,9.4-9.4V60.5C246,55.2,241.8,51,236.6,51z"/></g></g>
</svg>