<?xml version="1.0" encoding="utf-8"?>
<!-- Svg Vector Icons : http://www.onlinewebfonts.com/icon -->
<!DOCTYPE svg PUBLIC "-//W3C//DTD SVG 1.1//EN" "http://www.w3.org/Graphics/SVG/1.1/DTD/svg11.dtd">
<svg version="1.1" xmlns="http://www.w3.org/2000/svg" xmlns:xlink="http://www.w3.org/1999/xlink" x="0px" y="0px" viewBox="0 0 256 256" enable-background="new 0 0 256 256" xml:space="preserve">
<metadata> Svg Vector Icons : http://www.onlinewebfonts.com/icon </metadata>
<g><g><path fill="#000000" d="M128,10C128,10,127.9,10,128,10c-0.1,0-0.1,0-0.1,0c0,0-0.1,0-0.1,0C62.7,10.1,10,62.9,10,128c0,65.1,52.7,117.8,117.7,118c0,0,0.1,0,0.1,0c0,0,0,0,0,0c0,0,0.1,0,0.1,0c65.2,0,118-52.8,118-118C246,62.8,193.2,10,128,10z M132.7,80.6c12.5-0.3,24.7-2,36.4-4.8c3.5,13.9,5.7,29.9,6.1,47.5h-42.5V80.6z M132.7,71.2v-51c12.7,3.5,25.6,20.5,33.8,46.5C155.6,69.3,144.4,70.9,132.7,71.2z M123.3,20.1v51.1c-11.7-0.3-23.1-1.9-34.1-4.6C97.5,40.4,110.5,23.4,123.3,20.1z M123.3,80.6v42.7H80.5c0.3-17.6,2.6-33.6,6.1-47.6C98.4,78.6,110.7,80.3,123.3,80.6z M71,123.3H19.6c1-24.3,10.1-46.5,24.6-64.1C54.6,65,65.8,69.7,77.5,73.2C73.6,88.3,71.4,105.3,71,123.3z M71,132.7c0.3,18,2.6,35,6.5,50c-11.7,3.5-22.8,8.3-33.3,14.1c-14.5-17.6-23.5-39.9-24.6-64.1H71L71,132.7z M80.5,132.7h42.8v42.6c-12.6,0.3-24.9,2-36.7,4.9C83,166.3,80.8,150.3,80.5,132.7z M123.3,184.8v51.2c-12.8-3.3-25.8-20.4-34.1-46.6C100.2,186.7,111.6,185.1,123.3,184.8z M132.7,235.8v-51.1c11.6,0.3,22.9,1.9,33.8,4.5C158.3,215.3,145.5,232.3,132.7,235.8z M132.7,175.3v-42.6h42.5c-0.3,17.6-2.5,33.6-6.1,47.5C157.4,177.3,145.2,175.7,132.7,175.3z M184.7,132.7h51.8c-1,24.3-10.1,46.5-24.5,64.1c-10.6-5.8-21.8-10.6-33.6-14.2C182.1,167.6,184.4,150.7,184.7,132.7z M184.7,123.3c-0.3-18-2.6-34.9-6.4-50c11.8-3.6,23-8.3,33.6-14.2c14.5,17.6,23.5,39.9,24.6,64.1L184.7,123.3L184.7,123.3z M205.3,51.9c-9.4,5-19.3,9.1-29.6,12.3c-5.5-17.7-13.3-32.2-22.4-41.8C173.4,27.3,191.3,37.6,205.3,51.9z M102.4,22.5C93.3,32,85.5,46.4,80,64.1C69.8,61,59.9,56.9,50.6,51.9C64.6,37.7,82.4,27.4,102.4,22.5z M50.6,204c9.3-5,19.1-9.1,29.4-12.2c5.5,17.7,13.2,32.1,22.3,41.6C82.4,228.6,64.6,218.2,50.6,204z M153.3,233.5c9.2-9.5,16.9-24,22.4-41.8c10.4,3.2,20.3,7.3,29.7,12.3C191.3,218.3,173.4,228.7,153.3,233.5z"/></g></g>
</svg>